<svg version="1.1" viewBox="0.0 0.0 601.0 267.0" fill="none" stroke="none" stroke-linecap="square" stroke-miterlimit="10" xmlns:xlink="http://www.w3.org/1999/xlink" xmlns="http://www.w3.org/2000/svg"><clipPath id="p.0"><path d="m0 0l601.0 0l0 267.0l-601.0 0l0 -267.0z" clip-rule="nonzero"/></clipPath><g clip-path="url(#p.0)"><path fill="#000000" fill-opacity="0.0" d="m0 0l601.0 0l0 267.0l-601.0 0z" fill-rule="evenodd"/><path fill="#6aa84f" d="m105.42257 89.0105l100.67716 0l0 54.0l-100.67716 0z" fill-rule="evenodd"/><path fill="#54863f" d="m206.09973 89.0105l18.0 -18.0l0 54.0l-18.0 18.0z" fill-rule="evenodd"/><path fill="#87b972" d="m105.42257 89.0105l18.0 -18.0l100.67716 0l-18.0 18.0z" fill-rule="evenodd"/><path fill="#000000" fill-opacity="0.0" d="m105.42257 89.0105l18.0 -18.0l100.67716 0l0 54.0l-18.0 18.0l-100.67716 0zm0 0l100.67716 0l18.0 -18.0m-18.0 18.0l0 54.0" fill-rule="evenodd"/><path stroke="#ffffff" stroke-width="1.0" stroke-linejoin="round" stroke-linecap="butt" d="m105.42257 89.0105l18.0 -18.0l100.67716 0l0 54.0l-18.0 18.0l-100.67716 0zm0 0l100.67716 0l18.0 -18.0m-18.0 18.0l0 54.0" fill-rule="evenodd"/><path fill="#ffffff" d="m146.00124 118.243l1.765625 0.453125q-0.5625 2.171875 -2.0 3.328125q-1.4375 1.140625 -3.53125 1.140625q-2.15625 0 -3.515625 -0.875q-1.34375 -0.890625 -2.0625 -2.546875q-0.703125 -1.671875 -0.703125 -3.59375q0 -2.078125 0.796875 -3.625q0.796875 -1.5625 2.265625 -2.359375q1.484375 -0.8125 3.25 -0.8125q2.0 0 3.359375 1.015625q1.375 1.015625 1.90625 2.875l-1.734375 0.40625q-0.46875 -1.453125 -1.359375 -2.109375q-0.875 -0.671875 -2.203125 -0.671875q-1.546875 0 -2.578125 0.734375q-1.03125 0.734375 -1.453125 1.984375q-0.421875 1.234375 -0.421875 2.5625q0 1.703125 0.5 2.96875q0.5 1.265625 1.546875 1.90625q1.046875 0.625 2.265625 0.625q1.484375 0 2.515625 -0.859375q1.03125 -0.859375 1.390625 -2.546875zm3.8948212 4.6875l0 -13.359375l2.65625 0l3.15625 9.453125q0.4375 1.328125 0.640625 1.984375q0.234375 -0.734375 0.703125 -2.140625l3.203125 -9.296875l2.375 0l0 13.359375l-1.703125 0l0 -11.171875l-3.875 11.171875l-1.59375 0l-3.859375 -11.375l0 11.375l-1.703125 0zm14.993927 -4.296875l1.65625 -0.140625q0.125 1.0 0.546875 1.640625q0.4375 0.640625 1.34375 1.046875q0.921875 0.390625 2.0625153 0.390625q1.0 0 1.78125 -0.296875q0.78125 -0.296875 1.15625 -0.8125q0.375 -0.53125 0.375 -1.15625q0 -0.625 -0.375 -1.09375q-0.359375 -0.46875 -1.1875 -0.796875q-0.546875 -0.203125 -2.390625 -0.640625q-1.8281403 -0.453125 -2.5625153 -0.84375q-0.96875 -0.5 -1.4375 -1.234375q-0.46875 -0.75 -0.46875 -1.671875q0 -1.0 0.578125 -1.875q0.578125 -0.890625 1.671875 -1.34375q1.109375 -0.453125 2.4531403 -0.453125q1.484375 0 2.609375 0.484375q1.140625 0.46875 1.75 1.40625q0.609375 0.921875 0.65625 2.09375l-1.6875 0.125q-0.140625 -1.265625 -0.9375 -1.90625q-0.78125 -0.65625 -2.3125 -0.65625q-1.6093903 0 -2.3437653 0.59375q-0.734375 0.59375 -0.734375 1.421875q0 0.71875 0.53125 1.171875q0.5 0.46875 2.6562653 0.96875q2.15625 0.484375 2.953125 0.84375q1.171875 0.53125 1.71875 1.359375q0.5625 0.828125 0.5625 1.90625q0 1.0625 -0.609375 2.015625q-0.609375 0.9375 -1.75 1.46875q-1.140625 0.515625 -2.578125 0.515625q-1.8125153 0 -3.0468903 -0.53125q-1.21875 -0.53125 -1.921875 -1.59375q-0.6875 -1.0625 -0.71875 -2.40625z" fill-rule="nonzero"/><path fill="#6aa84f" d="m381.0 100.79002l0 0c0 -16.446777 14.108307 -29.779526 31.51181 -29.779526c17.403503 0 31.51181 13.332748 31.51181 29.779526c0 16.446785 -14.108307 29.779526 -31.51181 29.779526c-17.403503 0 -31.51181 -13.332741 -31.51181 -29.779526z" fill-rule="evenodd"/><path fill="#54863f" d="m399.13388 91.88374l0 0c0 -1.713211 1.4696045 -3.1020355 3.2824707 -3.1020355c1.8128662 0 3.2825012 1.3888245 3.2825012 3.1020355c0 1.7132034 -1.469635 3.1020355 -3.2825012 3.1020355c-1.8128662 0 -3.2824707 -1.3888321 -3.2824707 -3.1020355m20.190887 0l0 0c0 -1.713211 1.469635 -3.1020355 3.2825012 -3.1020355c1.8128662 0 3.2824707 1.3888245 3.2824707 3.1020355c0 1.7132034 -1.4696045 3.1020355 -3.2824707 3.1020355c-1.8128662 0 -3.2825012 -1.3888321 -3.2825012 -3.1020355" fill-rule="evenodd"/><path fill="#000000" fill-opacity="0.0" d="m395.4322 113.77708q17.07962 11.085129 34.119354 0" fill-rule="evenodd"/><path fill="#000000" fill-opacity="0.0" d="m381.0 100.79002l0 0c0 -16.446777 14.108307 -29.779526 31.51181 -29.779526c17.403503 0 31.51181 13.332748 31.51181 29.779526c0 16.446785 -14.108307 29.779526 -31.51181 29.779526c-17.403503 0 -31.51181 -13.332741 -31.51181 -29.779526z" fill-rule="evenodd"/><path stroke="#ffffff" stroke-width="1.0" stroke-linejoin="round" stroke-linecap="butt" d="m399.13388 91.88374l0 0c0 -1.713211 1.4696045 -3.1020355 3.2824707 -3.1020355c1.8128662 0 3.2825012 1.3888245 3.2825012 3.1020355c0 1.7132034 -1.469635 3.1020355 -3.2825012 3.1020355c-1.8128662 0 -3.2824707 -1.3888321 -3.2824707 -3.1020355m20.190887 0l0 0c0 -1.713211 1.469635 -3.1020355 3.2825012 -3.1020355c1.8128662 0 3.2824707 1.3888245 3.2824707 3.1020355c0 1.7132034 -1.4696045 3.1020355 -3.2824707 3.1020355c-1.8128662 0 -3.2825012 -1.3888321 -3.2825012 -3.1020355" fill-rule="evenodd"/><path stroke="#ffffff" stroke-width="1.0" stroke-linejoin="round" stroke-linecap="butt" d="m395.4322 113.77708q17.07962 11.085129 34.119354 0" fill-rule="evenodd"/><path stroke="#ffffff" stroke-width="1.0" stroke-linejoin="round" stroke-linecap="butt" d="m381.0 100.79002l0 0c0 -16.446777 14.108307 -29.779526 31.51181 -29.779526c17.403503 0 31.51181 13.332748 31.51181 29.779526c0 16.446785 -14.108307 29.779526 -31.51181 29.779526c-17.403503 0 -31.51181 -13.332741 -31.51181 -29.779526z" fill-rule="evenodd"/><path fill="#6aa84f" d="m239.0971 107.0105l15.968506 -15.968506l0 7.984253l89.79529 0l0 -7.984253l15.968506 15.968506l-15.968506 15.968506l0 -7.984253l-89.79529 0l0 7.984253z" fill-rule="evenodd"/><path stroke="#ffffff" stroke-width="1.0" stroke-linejoin="round" stroke-linecap="butt" d="m239.0971 107.0105l15.968506 -15.968506l0 7.984253l89.79529 0l0 -7.984253l15.968506 15.968506l-15.968506 15.968506l0 -7.984253l-89.79529 0l0 7.984253z" fill-rule="evenodd"/><path fill="#000000" fill-opacity="0.0" d="m368.2756 130.56955l88.47241 0l0 47.496063l-88.47241 0z" fill-rule="evenodd"/><path fill="#ffffff" d="m384.8381 157.48955l0 -1.421875q-1.125 1.640625 -3.0625 1.640625q-0.859375 0 -1.609375 -0.328125q-0.734375 -0.328125 -1.09375 -0.828125q-0.359375 -0.5 -0.5 -1.21875q-0.109375 -0.46875 -0.109375 -1.53125l0 -5.984375l1.640625 0l0 5.359375q0 1.28125 0.109375 1.734375q0.15625 0.640625 0.65625 1.015625q0.5 0.375 1.234375 0.375q0.734375 0 1.375 -0.375q0.65625 -0.390625 0.921875 -1.03125q0.265625 -0.65625 0.265625 -1.890625l0 -5.1875l1.640625 0l0 9.671875l-1.46875 0zm3.391327 -2.890625l1.625 -0.25q0.125 0.96875 0.75 1.5q0.625 0.515625 1.75 0.515625q1.125 0 1.671875 -0.453125q0.546875 -0.46875 0.546875 -1.09375q0 -0.546875 -0.484375 -0.875q-0.328125 -0.21875 -1.671875 -0.546875q-1.8125 -0.46875 -2.515625 -0.796875q-0.6875 -0.328125 -1.046875 -0.90625q-0.359375 -0.59375 -0.359375 -1.3125q0 -0.640625 0.296875 -1.1875q0.296875 -0.5625 0.8125 -0.921875q0.375 -0.28125 1.03125 -0.46875q0.671875 -0.203125 1.421875 -0.203125q1.140625 0 2.0 0.328125q0.859375 0.328125 1.265625 0.890625q0.421875 0.5625 0.578125 1.5l-1.609375 0.21875q-0.109375 -0.75 -0.640625 -1.171875q-0.515625 -0.421875 -1.46875 -0.421875q-1.140625 0 -1.625 0.375q-0.46875 0.375 -0.46875 0.875q0 0.3125 0.1875 0.578125q0.203125 0.265625 0.640625 0.4375q0.234375 0.09375 1.4375 0.421875q1.75 0.453125 2.4375 0.75q0.6875 0.296875 1.078125 0.859375q0.390625 0.5625 0.390625 1.40625q0 0.828125 -0.484375 1.546875q-0.46875 0.71875 -1.375 1.125q-0.90625 0.390625 -2.046875 0.390625q-1.875 0 -2.875 -0.78125q-0.984375 -0.78125 -1.25 -2.328125zm16.3125 2.890625l0 -1.421875q-1.125 1.640625 -3.0625 1.640625q-0.859375 0 -1.609375 -0.328125q-0.734375 -0.328125 -1.09375 -0.828125q-0.359375 -0.5 -0.5 -1.21875q-0.109375 -0.46875 -0.109375 -1.53125l0 -5.984375l1.640625 0l0 5.359375q0 1.28125 0.109375 1.734375q0.15625 0.640625 0.65625 1.015625q0.5 0.375 1.234375 0.375q0.734375 0 1.375 -0.375q0.65625 -0.390625 0.921875 -1.03125q0.265625 -0.65625 0.265625 -1.890625l0 -5.1875l1.640625 0l0 9.671875l-1.46875 0zm10.360107 -1.1875q-0.921875 0.765625 -1.765625 1.09375q-0.828125 0.3125 -1.796875 0.3125q-1.59375 0 -2.453125 -0.78125q-0.859375 -0.78125 -0.859375 -1.984375q0 -0.71875 0.328125 -1.296875q0.328125 -0.59375 0.84375 -0.9375q0.53125 -0.359375 1.1875 -0.546875q0.46875 -0.125 1.453125 -0.25q1.984375 -0.234375 2.921875 -0.5625q0.015625 -0.34375 0.015625 -0.421875q0 -1.0 -0.46875 -1.421875q-0.625 -0.546875 -1.875 -0.546875q-1.15625 0 -1.703125 0.40625q-0.546875 0.40625 -0.8125 1.421875l-1.609375 -0.21875q0.21875 -1.015625 0.71875 -1.640625q0.5 -0.640625 1.453125 -0.984375q0.953125 -0.34375 2.1875 -0.34375q1.25 0 2.015625 0.296875q0.78125 0.28125 1.140625 0.734375q0.375 0.4375 0.515625 1.109375q0.078125 0.421875 0.078125 1.515625l0 2.1875q0 2.28125 0.109375 2.890625q0.109375 0.59375 0.40625 1.15625l-1.703125 0q-0.265625 -0.515625 -0.328125 -1.1875zm-0.140625 -3.671875q-0.890625 0.375 -2.671875 0.625q-1.015625 0.140625 -1.4375 0.328125q-0.421875 0.1875 -0.65625 0.53125q-0.21875 0.34375 -0.21875 0.78125q0 0.65625 0.5 1.09375q0.5 0.4375 1.453125 0.4375q0.9375 0 1.671875 -0.40625q0.75 -0.421875 1.09375 -1.140625q0.265625 -0.5625 0.265625 -1.640625l0 -0.609375zm4.188202 4.859375l0 -9.671875l1.46875 0l0 1.46875q0.5625 -1.03125 1.03125 -1.359375q0.484375 -0.328125 1.0625 -0.328125q0.828125 0 1.6875 0.53125l-0.5625 1.515625q-0.609375 -0.359375 -1.203125 -0.359375q-0.546875 0 -0.96875 0.328125q-0.421875 0.328125 -0.609375 0.890625q-0.28125 0.875 -0.28125 1.921875l0 5.0625l-1.625 0zm6.228302 -11.46875l0 -1.890625l1.640625 0l0 1.890625l-1.640625 0zm0 11.46875l0 -9.671875l1.640625 0l0 9.671875l-1.640625 0zm3.5354614 -4.84375q0 -2.6875 1.484375 -3.96875q1.25 -1.078125 3.046875 -1.078125q2.0 0 3.265625 1.3125q1.265625 1.296875 1.265625 3.609375q0 1.859375 -0.5625 2.9375q-0.5625 1.0625 -1.640625 1.65625q-1.0625 0.59375 -2.328125 0.59375q-2.03125 0 -3.28125 -1.296875q-1.25 -1.3125 -1.25 -3.765625zm1.6875 0q0 1.859375 0.796875 2.796875q0.8125 0.921875 2.046875 0.921875q1.21875 0 2.03125 -0.921875q0.8125 -0.9375 0.8125 -2.84375q0 -1.796875 -0.8125 -2.71875q-0.8125 -0.921875 -2.03125 -0.921875q-1.234375 0 -2.046875 0.921875q-0.796875 0.90625 -0.796875 2.765625z" fill-rule="nonzero"/><path fill="#000000" fill-opacity="0.0" d="m286.0 106.002625l185.51181 0l0 21.637794l-185.51181 0z" fill-rule="evenodd"/></g></svg>