<svg version="1.1" viewBox="0.0 0.0 601.0 267.0" fill="none" stroke="none" stroke-linecap="square" stroke-miterlimit="10" xmlns:xlink="http://www.w3.org/1999/xlink" xmlns="http://www.w3.org/2000/svg"><clipPath id="p.0"><path d="m0 0l601.0 0l0 267.0l-601.0 0l0 -267.0z" clip-rule="nonzero"/></clipPath><g clip-path="url(#p.0)"><path fill="#000000" fill-opacity="0.0" d="m0 0l601.0 0l0 267.0l-601.0 0z" fill-rule="evenodd"/><path fill="#6aa84f" d="m227.0105 174.53543l75.58267 0l0 45.755905l-75.58267 0z" fill-rule="evenodd"/><path fill="#54863f" d="m302.59317 174.53543l15.251984 -15.251968l0 45.755905l-15.251984 15.251968z" fill-rule="evenodd"/><path fill="#87b972" d="m227.0105 174.53543l15.251968 -15.251968l75.58269 0l-15.251984 15.251968z" fill-rule="evenodd"/><path fill="#000000" fill-opacity="0.0" d="m227.0105 174.53543l15.251968 -15.251968l75.58269 0l0 45.755905l-15.251984 15.251968l-75.58267 0zm0 0l75.58267 0l15.251984 -15.251968m-15.251984 15.251968l0 45.755905" fill-rule="evenodd"/><path stroke="#ffffff" stroke-width="1.0" stroke-linejoin="round" stroke-linecap="butt" d="m227.0105 174.53543l15.251968 -15.251968l75.58269 0l0 45.755905l-15.251984 15.251968l-75.58267 0zm0 0l75.58267 0l15.251984 -15.251968m-15.251984 15.251968l0 45.755905" fill-rule="evenodd"/><path fill="#ffffff" d="m245.56993 194.1184l1.25 0.1875q0.078125 0.578125 0.4375 0.84375q0.46875 0.359375 1.3125 0.359375q0.890625 0 1.375 -0.359375q0.484375 -0.359375 0.65625 -1.0q0.109375 -0.390625 0.09375 -1.65625q-0.84375 1.0 -2.109375 1.0q-1.5625 0 -2.421875 -1.125q-0.859375 -1.140625 -0.859375 -2.71875q0 -1.09375 0.390625 -2.0q0.40625 -0.921875 1.140625 -1.421875q0.75 -0.5 1.765625 -0.5q1.34375 0 2.21875 1.078125l0 -0.90625l1.1875 0l0 6.5625q0 1.78125 -0.359375 2.515625q-0.359375 0.734375 -1.15625 1.15625q-0.78125 0.4375 -1.921875 0.4375q-1.359375 0 -2.203125 -0.609375q-0.828125 -0.609375 -0.796875 -1.84375zm1.0625 -4.5625q0 1.5 0.59375 2.1875q0.59375 0.6875 1.484375 0.6875q0.890625 0 1.484375 -0.6875q0.609375 -0.6875 0.609375 -2.140625q0 -1.390625 -0.625 -2.09375q-0.609375 -0.71875 -1.484375 -0.71875q-0.859375 0 -1.46875 0.703125q-0.59375 0.6875 -0.59375 2.0625zm7.322983 -5.078125l0 -1.46875l1.296875 0l0 1.46875l-1.296875 0zm0 9.015625l0 -7.59375l1.296875 0l0 7.59375l-1.296875 0zm6.0686646 -1.15625l0.1875 1.140625q-0.546875 0.109375 -0.984375 0.109375q-0.6875 0 -1.078125 -0.21875q-0.390625 -0.21875 -0.546875 -0.578125q-0.15625 -0.359375 -0.15625 -1.515625l0 -4.375l-0.953125 0l0 -1.0l0.953125 0l0 -1.890625l1.28125 -0.765625l0 2.65625l1.296875 0l0 1.0l-1.296875 0l0 4.4375q0 0.546875 0.0625 0.71875q0.078125 0.15625 0.21875 0.25q0.15625 0.078125 0.453125 0.078125q0.203125 0 0.5625 -0.046875zm1.2594604 1.15625l0 -10.484375l1.28125 0l0 3.75q0.90625 -1.03125 2.28125 -1.03125q0.84375 0 1.46875 0.328125q0.625 0.328125 0.890625 0.921875q0.265625 0.578125 0.265625 1.703125l0 4.8125l-1.28125 0l0 -4.8125q0 -0.96875 -0.421875 -1.40625q-0.421875 -0.4375 -1.1875 -0.4375q-0.578125 0 -1.078125 0.296875q-0.5 0.296875 -0.71875 0.8125q-0.21875 0.5 -0.21875 1.390625l0 4.15625l-1.28125 0zm13.135498 0l0 -1.109375q-0.890625 1.28125 -2.421875 1.28125q-0.671875 0 -1.25 -0.25q-0.578125 -0.265625 -0.875 -0.65625q-0.28125 -0.390625 -0.390625 -0.953125q-0.078125 -0.375 -0.078125 -1.203125l0 -4.703125l1.28125 0l0 4.203125q0 1.015625 0.078125 1.359375q0.125 0.515625 0.515625 0.8125q0.40625 0.28125 0.984375 0.28125q0.578125 0 1.078125 -0.296875q0.515625 -0.296875 0.71875 -0.8125q0.21875 -0.515625 0.21875 -1.484375l0 -4.0625l1.28125 0l0 7.59375l-1.140625 0zm4.3542175 0l-1.203125 0l0 -10.484375l1.296875 0l0 3.734375q0.8125 -1.015625 2.078125 -1.015625q0.703125 0 1.328125 0.28125q0.625 0.28125 1.03125 0.796875q0.40625 0.5 0.625 1.234375q0.234375 0.71875 0.234375 1.53125q0 1.96875 -0.96875 3.03125q-0.953125 1.0625 -2.3125 1.0625q-1.34375 0 -2.109375 -1.125l0 0.953125zm-0.015625 -3.859375q0 1.375 0.375 1.984375q0.609375 0.984375 1.640625 0.984375q0.84375 0 1.453125 -0.734375q0.625 -0.734375 0.625 -2.1875q0 -1.484375 -0.59375 -2.1875q-0.59375 -0.71875 -1.421875 -0.71875q-0.84375 0 -1.46875 0.734375q-0.609375 0.734375 -0.609375 2.125z" fill-rule="nonzero"/><path fill="#ffffff" d="m245.8043 214.39964l0 -10.5l1.171875 0l0 0.984375q0.421875 -0.578125 0.9375 -0.859375q0.515625 -0.296875 1.265625 -0.296875q0.96875 0 1.71875 0.5q0.75 0.5 1.125 1.421875q0.375 0.90625 0.375 1.984375q0 1.171875 -0.421875 2.109375q-0.40625 0.921875 -1.21875 1.421875q-0.796875 0.5 -1.671875 0.5q-0.640625 0 -1.15625 -0.265625q-0.515625 -0.28125 -0.84375 -0.6875l0 3.6875l-1.28125 0zm1.15625 -6.65625q0 1.453125 0.59375 2.15625q0.609375 0.703125 1.453125 0.703125q0.859375 0 1.46875 -0.71875q0.609375 -0.734375 0.609375 -2.25q0 -1.453125 -0.609375 -2.171875q-0.59375 -0.734375 -1.421875 -0.734375q-0.8125 0 -1.453125 0.78125q-0.640625 0.765625 -0.640625 2.234375zm11.947983 2.8125q-0.71875 0.609375 -1.375 0.859375q-0.65625 0.25 -1.421875 0.25q-1.25 0 -1.921875 -0.609375q-0.671875 -0.609375 -0.671875 -1.5625q0 -0.5625 0.25 -1.015625q0.25 -0.46875 0.65625 -0.75q0.421875 -0.28125 0.9375 -0.421875q0.375 -0.09375 1.140625 -0.1875q1.5625 -0.1875 2.296875 -0.453125q0.015625 -0.265625 0.015625 -0.328125q0 -0.796875 -0.375 -1.109375q-0.484375 -0.4375 -1.453125 -0.4375q-0.921875 0 -1.359375 0.328125q-0.421875 0.3125 -0.625 1.109375l-1.265625 -0.171875q0.171875 -0.796875 0.5625 -1.296875q0.390625 -0.5 1.140625 -0.765625q0.75 -0.265625 1.71875 -0.265625q0.984375 0 1.59375 0.234375q0.609375 0.21875 0.890625 0.5625q0.28125 0.34375 0.40625 0.875q0.0625 0.328125 0.0625 1.1875l0 1.71875q0 1.796875 0.078125 2.28125q0.078125 0.46875 0.328125 0.90625l-1.34375 0q-0.203125 -0.40625 -0.265625 -0.9375zm-0.109375 -2.875q-0.703125 0.28125 -2.09375 0.484375q-0.796875 0.109375 -1.125 0.265625q-0.328125 0.140625 -0.515625 0.421875q-0.171875 0.265625 -0.171875 0.59375q0 0.515625 0.390625 0.859375q0.390625 0.34375 1.140625 0.34375q0.734375 0 1.3125 -0.3125q0.59375 -0.328125 0.859375 -0.890625q0.203125 -0.4375 0.203125 -1.296875l0 -0.46875zm3.072998 4.4375l1.25 0.1875q0.078125 0.578125 0.4375 0.84375q0.46875 0.359375 1.3125 0.359375q0.890625 0 1.375 -0.359375q0.484375 -0.359375 0.65625 -1.0q0.109375 -0.390625 0.09375 -1.65625q-0.84375 1.0 -2.109375 1.0q-1.5625 0 -2.421875 -1.125q-0.859375 -1.140625 -0.859375 -2.71875q0 -1.09375 0.390625 -2.0q0.40625 -0.921875 1.140625 -1.421875q0.75 -0.5 1.765625 -0.5q1.34375 0 2.21875 1.078125l0 -0.90625l1.1875 0l0 6.5625q0 1.78125 -0.359375 2.515625q-0.359375 0.734375 -1.15625 1.15625q-0.78125 0.4375 -1.921875 0.4375q-1.359375 0 -2.203125 -0.609375q-0.828125 -0.609375 -0.796875 -1.84375zm1.0625 -4.5625q0 1.5 0.59375 2.1875q0.59375 0.6875 1.484375 0.6875q0.890625 0 1.484375 -0.6875q0.609375 -0.6875 0.609375 -2.140625q0 -1.390625 -0.625 -2.09375q-0.609375 -0.71875 -1.484375 -0.71875q-0.859375 0 -1.46875 0.703125q-0.59375 0.6875 -0.59375 2.0625zm12.526093 1.484375l1.328125 0.171875q-0.3125 1.171875 -1.171875 1.8125q-0.84375 0.640625 -2.171875 0.640625q-1.671875 0 -2.65625 -1.015625q-0.96875 -1.03125 -0.96875 -2.890625q0 -1.921875 0.984375 -2.96875q1.0 -1.0625 2.578125 -1.0625q1.515625 0 2.484375 1.03125q0.96875 1.03125 0.96875 2.921875q0 0.109375 -0.015625 0.34375l-5.65625 0q0.0625 1.25 0.703125 1.921875q0.640625 0.65625 1.59375 0.65625q0.703125 0 1.203125 -0.359375q0.5 -0.375 0.796875 -1.203125zm-4.234375 -2.078125l4.25 0q-0.09375 -0.953125 -0.484375 -1.4375q-0.625 -0.75 -1.609375 -0.75q-0.875 0 -1.484375 0.59375q-0.609375 0.59375 -0.671875 1.59375zm6.666748 2.265625l1.265625 -0.203125q0.109375 0.765625 0.59375 1.171875q0.5 0.40625 1.375 0.40625q0.890625 0 1.3125 -0.359375q0.4375 -0.359375 0.4375 -0.84375q0 -0.4375 -0.375 -0.6875q-0.265625 -0.171875 -1.3125 -0.4375q-1.421875 -0.359375 -1.96875 -0.609375q-0.546875 -0.265625 -0.828125 -0.734375q-0.28125 -0.46875 -0.28125 -1.015625q0 -0.515625 0.21875 -0.9375q0.234375 -0.4375 0.640625 -0.734375q0.296875 -0.21875 0.8125 -0.359375q0.53125 -0.15625 1.125 -0.15625q0.890625 0 1.5625 0.265625q0.671875 0.25 1.0 0.6875q0.328125 0.4375 0.4375 1.171875l-1.25 0.171875q-0.09375 -0.578125 -0.5 -0.90625q-0.40625 -0.34375 -1.15625 -0.34375q-0.890625 0 -1.28125 0.296875q-0.375 0.296875 -0.375 0.6875q0 0.25 0.15625 0.453125q0.15625 0.203125 0.5 0.34375q0.1875 0.078125 1.140625 0.328125q1.359375 0.359375 1.890625 0.59375q0.546875 0.234375 0.859375 0.6875q0.3125 0.4375 0.3125 1.09375q0 0.640625 -0.375 1.21875q-0.375 0.5625 -1.09375 0.875q-0.703125 0.3125 -1.59375 0.3125q-1.484375 0 -2.265625 -0.609375q-0.765625 -0.625 -0.984375 -1.828125z" fill-rule="nonzero"/><path fill="#6aa84f" d="m475.16797 188.19685l0 0c0 -16.446777 14.108337 -29.779526 31.51181 -29.779526c17.403534 0 31.51181 13.332748 31.51181 29.779526c0 16.446777 -14.108276 29.779526 -31.51181 29.779526c-17.403473 0 -31.51181 -13.332748 -31.51181 -29.779526z" fill-rule="evenodd"/><path fill="#54863f" d="m493.30185 179.29057l0 0c0 -1.713211 1.469635 -3.1020355 3.2825012 -3.1020355c1.8128662 0 3.2824707 1.3888245 3.2824707 3.1020355c0 1.7131958 -1.4696045 3.1020203 -3.2824707 3.1020203c-1.8128662 0 -3.2825012 -1.3888245 -3.2825012 -3.1020203m20.190887 0l0 0c0 -1.713211 1.4696655 -3.1020355 3.2825317 -3.1020355c1.8128662 0 3.2824707 1.3888245 3.2824707 3.1020355c0 1.7131958 -1.4696045 3.1020203 -3.2824707 3.1020203c-1.8128662 0 -3.2825317 -1.3888245 -3.2825317 -3.1020203" fill-rule="evenodd"/><path fill="#000000" fill-opacity="0.0" d="m489.6002 201.1839q17.07959 11.085129 34.119293 0" fill-rule="evenodd"/><path fill="#000000" fill-opacity="0.0" d="m475.16797 188.19685l0 0c0 -16.446777 14.108337 -29.779526 31.51181 -29.779526c17.403534 0 31.51181 13.332748 31.51181 29.779526c0 16.446777 -14.108276 29.779526 -31.51181 29.779526c-17.403473 0 -31.51181 -13.332748 -31.51181 -29.779526z" fill-rule="evenodd"/><path stroke="#ffffff" stroke-width="1.0" stroke-linejoin="round" stroke-linecap="butt" d="m493.30185 179.29057l0 0c0 -1.713211 1.469635 -3.1020355 3.2825012 -3.1020355c1.8128662 0 3.2824707 1.3888245 3.2824707 3.1020355c0 1.7131958 -1.4696045 3.1020203 -3.2824707 3.1020203c-1.8128662 0 -3.2825012 -1.3888245 -3.2825012 -3.1020203m20.190887 0l0 0c0 -1.713211 1.4696655 -3.1020355 3.2825317 -3.1020355c1.8128662 0 3.2824707 1.3888245 3.2824707 3.1020355c0 1.7131958 -1.4696045 3.1020203 -3.2824707 3.1020203c-1.8128662 0 -3.2825317 -1.3888245 -3.2825317 -3.1020203" fill-rule="evenodd"/><path stroke="#ffffff" stroke-width="1.0" stroke-linejoin="round" stroke-linecap="butt" d="m489.6002 201.1839q17.07959 11.085129 34.119293 0" fill-rule="evenodd"/><path stroke="#ffffff" stroke-width="1.0" stroke-linejoin="round" stroke-linecap="butt" d="m475.16797 188.19685l0 0c0 -16.446777 14.108337 -29.779526 31.51181 -29.779526c17.403534 0 31.51181 13.332748 31.51181 29.779526c0 16.446777 -14.108276 29.779526 -31.51181 29.779526c-17.403473 0 -31.51181 -13.332748 -31.51181 -29.779526z" fill-rule="evenodd"/><path fill="#6aa84f" d="m338.82153 188.19685l15.968506 -15.968506l0 7.984253l78.677155 0l0 -7.984253l15.968506 15.968506l-15.968506 15.968506l0 -7.984253l-78.677155 0l0 7.984253z" fill-rule="evenodd"/><path stroke="#ffffff" stroke-width="1.0" stroke-linejoin="round" stroke-linecap="butt" d="m338.82153 188.19685l15.968506 -15.968506l0 7.984253l78.677155 0l0 -7.984253l15.968506 15.968506l-15.968506 15.968506l0 -7.984253l-78.677155 0l0 7.984253z" fill-rule="evenodd"/><path fill="#000000" fill-opacity="0.0" d="m465.66403 214.97638l88.47244 0l0 47.496063l-88.47244 0z" fill-rule="evenodd"/><path fill="#ffffff" d="m482.22653 241.89638l0 -1.421875q-1.125 1.640625 -3.0625 1.640625q-0.859375 0 -1.609375 -0.328125q-0.734375 -0.328125 -1.09375 -0.828125q-0.359375 -0.5 -0.5 -1.21875q-0.109375 -0.46875 -0.109375 -1.53125l0 -5.984375l1.640625 0l0 5.359375q0 1.28125 0.109375 1.734375q0.15625 0.640625 0.65625 1.015625q0.5 0.375 1.234375 0.375q0.734375 0 1.375 -0.375q0.65625 -0.390625 0.921875 -1.03125q0.265625 -0.65625 0.265625 -1.890625l0 -5.1875l1.640625 0l0 9.671875l-1.46875 0zm3.3913574 -2.890625l1.625 -0.25q0.125 0.96875 0.75 1.5q0.625 0.515625 1.75 0.515625q1.125 0 1.671875 -0.453125q0.546875 -0.46875 0.546875 -1.09375q0 -0.546875 -0.484375 -0.875q-0.328125 -0.21875 -1.671875 -0.546875q-1.8125 -0.46875 -2.515625 -0.796875q-0.6875 -0.328125 -1.046875 -0.90625q-0.359375 -0.59375 -0.359375 -1.3125q0 -0.640625 0.296875 -1.1875q0.296875 -0.5625 0.8125 -0.921875q0.375 -0.28125 1.03125 -0.46875q0.671875 -0.203125 1.421875 -0.203125q1.140625 0 2.0 0.328125q0.859375 0.328125 1.265625 0.890625q0.421875 0.5625 0.578125 1.5l-1.609375 0.21875q-0.109375 -0.75 -0.640625 -1.171875q-0.515625 -0.421875 -1.46875 -0.421875q-1.140625 0 -1.625 0.375q-0.46875 0.375 -0.46875 0.875q0 0.3125 0.1875 0.578125q0.203125 0.265625 0.640625 0.4375q0.234375 0.09375 1.4375 0.421875q1.75 0.453125 2.4375 0.75q0.6875 0.296875 1.078125 0.859375q0.390625 0.5625 0.390625 1.40625q0 0.828125 -0.484375 1.546875q-0.46875 0.71875 -1.375 1.125q-0.90625 0.390625 -2.046875 0.390625q-1.875 0 -2.875 -0.78125q-0.984375 -0.78125 -1.25 -2.328125zm16.3125 2.890625l0 -1.421875q-1.125 1.640625 -3.0625 1.640625q-0.859375 0 -1.609375 -0.328125q-0.734375 -0.328125 -1.09375 -0.828125q-0.359375 -0.5 -0.5 -1.21875q-0.109375 -0.46875 -0.109375 -1.53125l0 -5.984375l1.640625 0l0 5.359375q0 1.28125 0.109375 1.734375q0.15625 0.640625 0.65625 1.015625q0.5 0.375 1.234375 0.375q0.734375 0 1.375 -0.375q0.65625 -0.390625 0.921875 -1.03125q0.265625 -0.65625 0.265625 -1.890625l0 -5.1875l1.640625 0l0 9.671875l-1.46875 0zm10.360077 -1.1875q-0.921875 0.765625 -1.765625 1.09375q-0.828125 0.3125 -1.796875 0.3125q-1.59375 0 -2.453125 -0.78125q-0.859375 -0.78125 -0.859375 -1.984375q0 -0.71875 0.328125 -1.296875q0.328125 -0.59375 0.84375 -0.9375q0.53125 -0.359375 1.1875 -0.546875q0.46875 -0.125 1.453125 -0.25q1.984375 -0.234375 2.921875 -0.5625q0.015625 -0.34375 0.015625 -0.421875q0 -1.0 -0.46875 -1.421875q-0.625 -0.546875 -1.875 -0.546875q-1.15625 0 -1.703125 0.40625q-0.546875 0.40625 -0.8125 1.421875l-1.609375 -0.21875q0.21875 -1.015625 0.71875 -1.640625q0.5 -0.640625 1.453125 -0.984375q0.953125 -0.34375 2.1875 -0.34375q1.25 0 2.015625 0.296875q0.78125 0.28125 1.140625 0.734375q0.375 0.4375 0.515625 1.109375q0.078125 0.421875 0.078125 1.515625l0 2.1875q0 2.28125 0.109375 2.890625q0.109375 0.59375 0.40625 1.15625l-1.703125 0q-0.265625 -0.515625 -0.328125 -1.1875zm-0.140625 -3.671875q-0.890625 0.375 -2.671875 0.625q-1.015625 0.140625 -1.4375 0.328125q-0.421875 0.1875 -0.65625 0.53125q-0.21875 0.34375 -0.21875 0.78125q0 0.65625 0.5 1.09375q0.5 0.4375 1.453125 0.4375q0.9375 0 1.671875 -0.40625q0.75 -0.421875 1.09375 -1.140625q0.265625 -0.5625 0.265625 -1.640625l0 -0.609375zm4.1882324 4.859375l0 -9.671875l1.46875 0l0 1.46875q0.5625 -1.03125 1.03125 -1.359375q0.484375 -0.328125 1.0625 -0.328125q0.828125 0 1.6875 0.53125l-0.5625 1.515625q-0.609375 -0.359375 -1.203125 -0.359375q-0.546875 0 -0.96875 0.328125q-0.421875 0.328125 -0.609375 0.890625q-0.28125 0.875 -0.28125 1.921875l0 5.0625l-1.625 0zm6.2282715 -11.46875l0 -1.890625l1.640625 0l0 1.890625l-1.640625 0zm0 11.46875l0 -9.671875l1.640625 0l0 9.671875l-1.640625 0zm3.5354614 -4.84375q0 -2.6875 1.484375 -3.96875q1.25 -1.078125 3.046875 -1.078125q2.0 0 3.265625 1.3125q1.265625 1.296875 1.265625 3.609375q0 1.859375 -0.5625 2.9375q-0.5625 1.0625 -1.640625 1.65625q-1.0625 0.59375 -2.328125 0.59375q-2.03125 0 -3.28125 -1.296875q-1.25 -1.3125 -1.25 -3.765625zm1.6875 0q0 1.859375 0.796875 2.796875q0.8125 0.921875 2.046875 0.921875q1.21875 0 2.03125 -0.921875q0.8125 -0.9375 0.8125 -2.84375q0 -1.796875 -0.8125 -2.71875q-0.8125 -0.921875 -2.03125 -0.921875q-1.234375 0 -2.046875 0.921875q-0.796875 0.90625 -0.796875 2.765625z" fill-rule="nonzero"/><path fill="#6aa84f" d="m23.535433 30.783901l0 0c0 -6.673319 14.10832 -12.083115 31.511812 -12.083115c17.403492 0 31.511806 5.4097958 31.511806 12.083115l0 48.332462c0 6.673317 -14.1083145 12.083115 -31.511806 12.083115c-17.403492 0 -31.511812 -5.4097977 -31.511812 -12.083115z" fill-rule="evenodd"/><path fill="#000000" fill-opacity="0.0" d="m86.55905 30.783901l0 0c0 6.673321 -14.1083145 12.083115 -31.511806 12.083115c-17.403492 0 -31.511812 -5.409794 -31.511812 -12.083115" fill-rule="evenodd"/><path fill="#000000" fill-opacity="0.0" d="m23.535433 30.783901l0 0c0 -6.673319 14.10832 -12.083115 31.511812 -12.083115c17.403492 0 31.511806 5.4097958 31.511806 12.083115l0 48.332462c0 6.673317 -14.1083145 12.083115 -31.511806 12.083115c-17.403492 0 -31.511812 -5.4097977 -31.511812 -12.083115z" fill-rule="evenodd"/><path stroke="#ffffff" stroke-width="1.0" stroke-linejoin="round" stroke-linecap="butt" d="m86.55905 30.783901l0 0c0 6.673321 -14.1083145 12.083115 -31.511806 12.083115c-17.403492 0 -31.511812 -5.409794 -31.511812 -12.083115" fill-rule="evenodd"/><path stroke="#ffffff" stroke-width="1.0" stroke-linejoin="round" stroke-linecap="butt" d="m23.535433 30.783901l0 0c0 -6.673319 14.10832 -12.083115 31.511812 -12.083115c17.403492 0 31.511806 5.4097958 31.511806 12.083115l0 48.332462c0 6.673317 -14.1083145 12.083115 -31.511806 12.083115c-17.403492 0 -31.511812 -5.4097977 -31.511812 -12.083115z" fill-rule="evenodd"/><path fill="#ffffff" d="m35.69176 58.369812l1.140625 0.15625q0.078125 0.53125 0.40625 0.78125q0.4375 0.3125 1.1875 0.3125q0.8125 0 1.25 -0.328125q0.453125 -0.3125 0.609375 -0.90625q0.09375 -0.359375 0.078125 -1.5q-0.765625 0.90625 -1.90625 0.90625q-1.4375 0 -2.21875 -1.03125q-0.78125 -1.03125 -0.78125 -2.46875q0 -0.984375 0.359375 -1.8125q0.359375 -0.84375 1.03125 -1.296875q0.6875 -0.453125 1.609375 -0.453125q1.21875 0 2.015625 0.984375l0 -0.828125l1.078125 0l0 5.96875q0 1.609375 -0.328125 2.28125q-0.328125 0.6875 -1.046875 1.078125q-0.703125 0.390625 -1.75 0.390625q-1.234375 0 -2.0 -0.5625q-0.75 -0.5625 -0.734375 -1.671875zm0.984375 -4.15625q0 1.359375 0.53125 1.984375q0.546875 0.625 1.359375 0.625q0.796875 0 1.34375 -0.625q0.546875 -0.625 0.546875 -1.953125q0 -1.265625 -0.5625 -1.90625q-0.5625 -0.640625 -1.359375 -0.640625q-0.765625 0 -1.3125 0.640625q-0.546875 0.625 -0.546875 1.875zm6.2093506 0.125q0 -1.921875 1.078125 -2.84375q0.890625 -0.765625 2.171875 -0.765625q1.421875 0 2.328125 0.9375q0.90625 0.921875 0.90625 2.578125q0 1.328125 -0.40625 2.09375q-0.390625 0.765625 -1.15625 1.1875q-0.765625 0.421875 -1.671875 0.421875q-1.453125 0 -2.359375 -0.921875q-0.890625 -0.9375 -0.890625 -2.6875zm1.203125 0q0 1.328125 0.578125 1.984375q0.59375 0.65625 1.46875 0.65625q0.875 0 1.453125 -0.65625q0.578125 -0.671875 0.578125 -2.03125q0 -1.28125 -0.59375 -1.9375q-0.578125 -0.65625 -1.4375 -0.65625q-0.875 0 -1.46875 0.65625q-0.578125 0.65625 -0.578125 1.984375zm6.2093506 0q0 -1.921875 1.078125 -2.84375q0.890625 -0.765625 2.171875 -0.765625q1.421875 0 2.328125 0.9375q0.90625 0.921875 0.90625 2.578125q0 1.328125 -0.40625 2.09375q-0.390625 0.765625 -1.15625 1.1875q-0.765625 0.421875 -1.671875 0.421875q-1.453125 0 -2.359375 -0.921875q-0.890625 -0.9375 -0.890625 -2.6875zm1.203125 0q0 1.328125 0.578125 1.984375q0.59375 0.65625 1.46875 0.65625q0.875 0 1.453125 -0.65625q0.578125 -0.671875 0.578125 -2.03125q0 -1.28125 -0.59375 -1.9375q-0.578125 -0.65625 -1.4375 -0.65625q-0.875 0 -1.46875 0.65625q-0.578125 0.65625 -0.578125 1.984375zm6.4281006 4.03125l1.140625 0.15625q0.078125 0.53125 0.40625 0.78125q0.4375 0.3125 1.1875 0.3125q0.8125 0 1.25 -0.328125q0.453125 -0.3125 0.609375 -0.90625q0.09375 -0.359375 0.078125 -1.5q-0.765625 0.90625 -1.90625 0.90625q-1.4375 0 -2.21875 -1.03125q-0.78125 -1.03125 -0.78125 -2.46875q0 -0.984375 0.359375 -1.8125q0.359375 -0.84375 1.03125 -1.296875q0.6875 -0.453125 1.609375 -0.453125q1.21875 0 2.015625 0.984375l0 -0.828125l1.078125 0l0 5.96875q0 1.609375 -0.328125 2.28125q-0.328125 0.6875 -1.046875 1.078125q-0.703125 0.390625 -1.75 0.390625q-1.234375 0 -2.0 -0.5625q-0.75 -0.5625 -0.734375 -1.671875zm0.984375 -4.15625q0 1.359375 0.53125 1.984375q0.546875 0.625 1.359375 0.625q0.796875 0 1.34375 -0.625q0.546875 -0.625 0.546875 -1.953125q0 -1.265625 -0.5625 -1.90625q-0.5625 -0.640625 -1.359375 -0.640625q-0.765625 0 -1.3125 0.640625q-0.546875 0.625 -0.546875 1.875zm6.631222 3.578125l0 -9.546875l1.171875 0l0 9.546875l-1.171875 0zm7.71109 -2.21875l1.203125 0.140625q-0.28125 1.0625 -1.0625 1.65625q-0.765625 0.578125 -1.96875 0.578125q-1.515625 0 -2.40625 -0.9375q-0.890625 -0.9375 -0.890625 -2.609375q0 -1.75 0.890625 -2.703125q0.90625 -0.96875 2.34375 -0.96875q1.390625 0 2.265625 0.9375q0.875 0.9375 0.875 2.65625q0 0.109375 0 0.3125l-5.15625 0q0.0625 1.140625 0.640625 1.75q0.578125 0.59375 1.4375 0.59375q0.65625 0 1.109375 -0.328125q0.453125 -0.34375 0.71875 -1.078125zm-3.84375 -1.90625l3.859375 0q-0.078125 -0.859375 -0.4375 -1.296875q-0.5625 -0.6875 -1.453125 -0.6875q-0.8125 0 -1.359375 0.546875q-0.546875 0.53125 -0.609375 1.4375z" fill-rule="nonzero"/><path fill="#ffffff" d="m45.962383 73.79169l0 -0.875q-0.65625 1.03125 -1.9375 1.03125q-0.8125 0 -1.515625 -0.453125q-0.6875 -0.453125 -1.078125 -1.265625q-0.375 -0.828125 -0.375 -1.890625q0 -1.03125 0.34375 -1.875q0.34375 -0.84375 1.03125 -1.28125q0.703125 -0.453125 1.546875 -0.453125q0.625 0 1.109375 0.265625q0.5 0.25 0.796875 0.671875l0 -3.421875l1.171875 0l0 9.546875l-1.09375 0zm-3.703125 -3.453125q0 1.328125 0.5625 1.984375q0.5625 0.65625 1.328125 0.65625q0.765625 0 1.296875 -0.625q0.53125 -0.625 0.53125 -1.90625q0 -1.421875 -0.546875 -2.078125q-0.546875 -0.671875 -1.34375 -0.671875q-0.78125 0 -1.3125 0.640625q-0.515625 0.625 -0.515625 2.0zm6.6156006 3.453125l0 -6.90625l1.0625 0l0 1.046875q0.40625 -0.734375 0.734375 -0.96875q0.34375 -0.234375 0.765625 -0.234375q0.59375 0 1.203125 0.375l-0.40625 1.078125q-0.4375 -0.25 -0.859375 -0.25q-0.390625 0 -0.703125 0.234375q-0.296875 0.234375 -0.421875 0.640625q-0.203125 0.625 -0.203125 1.359375l0 3.625l-1.171875 0zm4.4696198 -8.1875l0 -1.359375l1.171875 0l0 1.359375l-1.171875 0zm0 8.1875l0 -6.90625l1.171875 0l0 6.90625l-1.171875 0zm4.86734 0l-2.625 -6.90625l1.234375 0l1.484375 4.140625q0.234375 0.65625 0.4375 1.390625q0.15625 -0.546875 0.4375 -1.3125l1.53125 -4.21875l1.21875 0l-2.625 6.90625l-1.09375 0zm9.476559 -2.21875l1.203125 0.140625q-0.28125 1.0625 -1.0625 1.65625q-0.765625 0.578125 -1.96875 0.578125q-1.515625 0 -2.4062462 -0.9375q-0.890625 -0.9375 -0.890625 -2.609375q0 -1.75 0.890625 -2.703125q0.9062462 -0.96875 2.3437462 -0.96875q1.390625 0 2.265625 0.9375q0.875 0.9375 0.875 2.65625q0 0.109375 0 0.3125l-5.156246 0q0.0625 1.140625 0.6406212 1.75q0.578125 0.59375 1.4375 0.59375q0.65625 0 1.109375 -0.328125q0.453125 -0.34375 0.71875 -1.078125zm-3.8437462 -1.90625l3.8593712 0q-0.078125 -0.859375 -0.4375 -1.296875q-0.5625 -0.6875 -1.453125 -0.6875q-0.8125 0 -1.359375 0.546875q-0.5468712 0.53125 -0.6093712 1.4375z" fill-rule="nonzero"/><path fill="#6aa84f" d="m98.42519 55.666668l70.94488 0l0 -7.2834663l14.56694 14.566929l-14.56694 14.566929l0 -7.2834625l-70.94488 0z" fill-rule="evenodd"/><path stroke="#ffffff" stroke-width="1.0" stroke-linejoin="round" stroke-linecap="butt" d="m98.42519 55.666668l70.94488 0l0 -7.2834663l14.56694 14.566929l-14.56694 14.566929l0 -7.2834625l-70.94488 0z" fill-rule="evenodd"/><path fill="#6aa84f" d="m203.55118 39.698162l117.22049 0l0 45.75591l-117.22049 0z" fill-rule="evenodd"/><path fill="#54863f" d="m320.77167 39.698162l15.251953 -15.251968l0 45.75591l-15.251953 15.251968z" fill-rule="evenodd"/><path fill="#87b972" d="m203.55118 39.698162l15.251968 -15.251968l117.220474 0l-15.251953 15.251968z" fill-rule="evenodd"/><path fill="#000000" fill-opacity="0.0" d="m203.55118 39.698162l15.251968 -15.251968l117.220474 0l0 45.75591l-15.251953 15.251968l-117.22049 0zm0 0l117.22049 0l15.251953 -15.251968m-15.251953 15.251968l0 45.75591" fill-rule="evenodd"/><path stroke="#ffffff" stroke-width="1.0" stroke-linejoin="round" stroke-linecap="butt" d="m203.55118 39.698162l15.251968 -15.251968l117.220474 0l0 45.75591l-15.251953 15.251968l-117.22049 0zm0 0l117.22049 0l15.251953 -15.251968m-15.251953 15.251968l0 45.75591" fill-rule="evenodd"/><path fill="#ffffff" d="m220.5556 70.29299l1.59375 0.234375q0.109375 0.75 0.5625 1.078125q0.609375 0.453125 1.671875 0.453125q1.140625 0 1.75 -0.453125q0.625 -0.453125 0.84375 -1.265625q0.125 -0.5 0.109375 -2.109375q-1.0625 1.265625 -2.671875 1.265625q-2.0 0 -3.09375 -1.4375q-1.09375 -1.4375 -1.09375 -3.453125q0 -1.3906288 0.5 -2.5625038q0.515625 -1.171875 1.453125 -1.796875q0.953125 -0.640625 2.25 -0.640625q1.703125 0 2.8125 1.375l0 -1.15625l1.515625 0l0 8.359379q0 2.265625 -0.46875 3.203125q-0.453125 0.9375 -1.453125 1.484375q-0.984375 0.546875 -2.453125 0.546875q-1.71875 0 -2.796875 -0.78125q-1.0625 -0.765625 -1.03125 -2.34375zm1.359375 -5.8125q0 1.90625 0.75 2.78125q0.765625 0.875 1.90625 0.875q1.125 0 1.890625 -0.859375q0.765625 -0.875 0.765625 -2.734375q0 -1.7812538 -0.796875 -2.6718788q-0.78125 -0.90625 -1.890625 -0.90625q-1.09375 0 -1.859375 0.890625q-0.765625 0.875 -0.765625 2.6250038zm15.953842 1.90625l1.6875 0.203125q-0.40625 1.484375 -1.484375 2.3125q-1.078125 0.8125 -2.765625 0.8125q-2.125 0 -3.375 -1.296875q-1.234375 -1.3125 -1.234375 -3.671875q0 -2.4531288 1.25 -3.7968788q1.265625 -1.34375 3.265625 -1.34375q1.9375 0 3.15625 1.328125q1.234375 1.3125 1.234375 3.7031288q0 0.15625 0 0.4375l-7.21875 0q0.09375 1.59375 0.90625 2.453125q0.8125 0.84375 2.015625 0.84375q0.90625 0 1.546875 -0.46875q0.640625 -0.484375 1.015625 -1.515625zm-5.390625 -2.6562538l5.40625 0q-0.109375 -1.21875 -0.625 -1.828125q-0.78125 -0.953125 -2.03125 -0.953125q-1.125 0 -1.90625 0.765625q-0.765625 0.75 -0.84375 2.015625zm9.141342 5.765629l0 -9.671879l1.46875 0l0 1.375q1.0625 -1.59375 3.078125 -1.59375q0.875 0 1.609375 0.3125q0.734375 0.3125 1.09375 0.828125q0.375 0.5 0.515625 1.203125q0.09375 0.453125 0.09375 1.59375l0 5.953129l-1.640625 0l0 -5.890629q0 -1.0 -0.203125 -1.484375q-0.1875 -0.5 -0.671875 -0.796875q-0.484375 -0.296875 -1.140625 -0.296875q-1.046875 0 -1.8125 0.671875q-0.75 0.65625 -0.75 2.5156288l0 5.28125l-1.640625 0zm17.000732 -3.109375l1.6875 0.203125q-0.40625 1.484375 -1.484375 2.3125q-1.078125 0.8125 -2.765625 0.8125q-2.1250153 0 -3.3750153 -1.296875q-1.234375 -1.3125 -1.234375 -3.671875q0 -2.4531288 1.25 -3.7968788q1.265625 -1.34375 3.265625 -1.34375q1.9375153 0 3.1562653 1.328125q1.234375 1.3125 1.234375 3.7031288q0 0.15625 0 0.4375l-7.2187653 0q0.09375 1.59375 0.90625 2.453125q0.8125 0.84375 2.0156403 0.84375q0.90625 0 1.546875 -0.46875q0.640625 -0.484375 1.015625 -1.515625zm-5.3906403 -2.6562538l5.4062653 0q-0.109375 -1.21875 -0.625 -1.828125q-0.78125 -0.953125 -2.0312653 -0.953125q-1.125 0 -1.90625 0.765625q-0.765625 0.75 -0.84375 2.015625zm9.125717 5.765629l0 -9.671879l1.46875 0l0 1.46875q0.5625 -1.03125 1.03125 -1.359375q0.484375 -0.328125 1.0625 -0.328125q0.828125 0 1.6875 0.53125l-0.5625 1.515625q-0.609375 -0.359375 -1.203125 -0.359375q-0.546875 0 -0.96875 0.328125q-0.421875 0.328125 -0.609375 0.890625q-0.28125 0.875 -0.28125 1.9218788l0 5.0625l-1.625 0zm12.540802 -1.1875q-0.921875 0.765625 -1.765625 1.09375q-0.828125 0.3125 -1.796875 0.3125q-1.59375 0 -2.453125 -0.78125q-0.859375 -0.78125 -0.859375 -1.984375q0 -0.71875 0.328125 -1.296875q0.328125 -0.59375 0.84375 -0.9375q0.53125 -0.359375 1.1875 -0.546875q0.46875 -0.125 1.453125 -0.2500038q1.984375 -0.234375 2.921875 -0.5625q0.015625 -0.34375 0.015625 -0.421875q0 -1.0 -0.46875 -1.421875q-0.625 -0.546875 -1.875 -0.546875q-1.15625 0 -1.703125 0.40625q-0.546875 0.40625 -0.8125 1.421875l-1.609375 -0.21875q0.21875 -1.015625 0.71875 -1.640625q0.5 -0.640625 1.453125 -0.984375q0.953125 -0.34375 2.1875 -0.34375q1.25 0 2.015625 0.296875q0.78125 0.28125 1.140625 0.734375q0.375 0.4375 0.515625 1.109375q0.078125 0.421875 0.078125 1.515625l0 2.1875038q0 2.28125 0.109375 2.890625q0.109375 0.59375 0.40625 1.15625l-1.703125 0q-0.265625 -0.515625 -0.328125 -1.1875zm-0.140625 -3.671875q-0.890625 0.375 -2.671875 0.625q-1.015625 0.140625 -1.4375 0.328125q-0.421875 0.1875 -0.65625 0.53125q-0.21875 0.34375 -0.21875 0.78125q0 0.65625 0.5 1.09375q0.5 0.4375 1.453125 0.4375q0.9375 0 1.671875 -0.40625q0.75 -0.421875 1.09375 -1.140625q0.265625 -0.5625 0.265625 -1.640625l0 -0.609375zm10.469482 4.859375l0 -1.21875q-0.90625 1.4375 -2.703125 1.4375q-1.15625 0 -2.125 -0.640625q-0.96875 -0.640625 -1.5 -1.78125q-0.53125 -1.140625 -0.53125 -2.625q0 -1.4531288 0.484375 -2.6250038q0.484375 -1.1875 1.4375 -1.8125q0.96875 -0.625 2.171875 -0.625q0.875 0 1.546875 0.375q0.6875 0.359375 1.109375 0.953125l0 -4.796875l1.640625 0l0 13.359379l-1.53125 0zm-5.171875 -4.828125q0 1.859375 0.78125 2.78125q0.78125 0.921875 1.84375 0.921875q1.078125 0 1.828125 -0.875q0.75 -0.890625 0.75 -2.6875q0 -1.9843788 -0.765625 -2.9062538q-0.765625 -0.9375 -1.890625 -0.9375q-1.078125 0 -1.8125 0.890625q-0.734375 0.890625 -0.734375 2.8125038zm8.672577 -0.015625q0 -2.6875038 1.484375 -3.9687538q1.25 -1.078125 3.046875 -1.078125q2.0 0 3.265625 1.3125q1.265625 1.296875 1.265625 3.6093788q0 1.859375 -0.5625 2.9375q-0.5625 1.0625 -1.640625 1.65625q-1.0625 0.59375 -2.328125 0.59375q-2.03125 0 -3.28125 -1.296875q-1.25 -1.3125 -1.25 -3.765625zm1.6875 0q0 1.859375 0.796875 2.796875q0.8125 0.921875 2.046875 0.921875q1.21875 0 2.03125 -0.921875q0.8125 -0.9375 0.8125 -2.84375q0 -1.7968788 -0.8125 -2.7187538q-0.8125 -0.921875 -2.03125 -0.921875q-1.234375 0 -2.046875 0.921875q-0.796875 0.90625 -0.796875 2.7656288zm9.281982 4.84375l0 -9.671879l1.46875 0l0 1.46875q0.5625 -1.03125 1.03125 -1.359375q0.484375 -0.328125 1.0625 -0.328125q0.828125 0 1.6875 0.53125l-0.5625 1.515625q-0.609375 -0.359375 -1.203125 -0.359375q-0.546875 0 -0.96875 0.328125q-0.421875 0.328125 -0.609375 0.890625q-0.28125 0.875 -0.28125 1.9218788l0 5.0625l-1.625 0z" fill-rule="nonzero"/><path fill="#93c47d" d="m238.98163 104.29921l67.93701 0l0 25.745224l-29.015747 0l0 3.9713135l4.952759 0l-9.905518 9.905518l-9.905518 -9.905518l4.952759 0l0 -3.9713135l-29.015747 0z" fill-rule="evenodd"/><path stroke="#ffffff" stroke-width="1.0" stroke-linejoin="round" stroke-linecap="butt" d="m238.98163 104.29921l67.93701 0l0 25.745224l-29.015747 0l0 3.9713135l4.952759 0l-9.905518 9.905518l-9.905518 -9.905518l4.952759 0l0 -3.9713135l-29.015747 0z" fill-rule="evenodd"/><path fill="#ffffff" d="m255.5285 120.544945l1.609375 0.21875q-0.265625 1.65625 -1.359375 2.609375q-1.078125 0.9375 -2.671875 0.9375q-1.984375 0 -3.1875 -1.296875q-1.203125 -1.296875 -1.203125 -3.71875q0 -1.578125 0.515625 -2.75q0.515625 -1.171875 1.578125 -1.75q1.0625 -0.59375 2.3125 -0.59375q1.578125 0 2.578125 0.796875q1.0 0.796875 1.28125 2.265625l-1.59375 0.234375q-0.234375 -0.96875 -0.8125 -1.453125q-0.578125 -0.5 -1.390625 -0.5q-1.234375 0 -2.015625 0.890625q-0.78125 0.890625 -0.78125 2.8125q0 1.953125 0.75 2.84375q0.75 0.875 1.953125 0.875q0.96875 0 1.609375 -0.59375q0.65625 -0.59375 0.828125 -1.828125zm2.40625 -1.296875q0 -2.6875 1.484375 -3.96875q1.25 -1.078125 3.046875 -1.078125q2.0 0 3.265625 1.3125q1.265625 1.296875 1.265625 3.609375q0 1.859375 -0.5625 2.9375q-0.5625 1.0625 -1.640625 1.65625q-1.0625 0.59375 -2.328125 0.59375q-2.03125 0 -3.28125 -1.296875q-1.25 -1.3125 -1.25 -3.765625zm1.6875 0q0 1.859375 0.796875 2.796875q0.8125 0.921875 2.046875 0.921875q1.21875 0 2.03125 -0.921875q0.8125 -0.9375 0.8125 -2.84375q0 -1.796875 -0.8125 -2.71875q-0.8125 -0.921875 -2.03125 -0.921875q-1.234375 0 -2.046875 0.921875q-0.796875 0.90625 -0.796875 2.765625zm9.297577 8.546875l0 -13.375l1.484375 0l0 1.25q0.53125 -0.734375 1.1875 -1.09375q0.671875 -0.375 1.625 -0.375q1.234375 0 2.171875 0.640625q0.953125 0.625 1.4375 1.796875q0.484375 1.15625 0.484375 2.546875q0 1.484375 -0.53125 2.671875q-0.53125 1.1875 -1.546875 1.828125q-1.015625 0.625 -2.140625 0.625q-0.8125 0 -1.46875 -0.34375q-0.65625 -0.34375 -1.0625 -0.875l0 4.703125l-1.640625 0zm1.484375 -8.484375q0 1.859375 0.75 2.765625q0.765625 0.890625 1.828125 0.890625q1.09375 0 1.875 -0.921875q0.78125 -0.9375 0.78125 -2.875q0 -1.84375 -0.765625 -2.765625q-0.75 -0.921875 -1.8125 -0.921875q-1.046875 0 -1.859375 0.984375q-0.796875 0.96875 -0.796875 2.84375zm8.891357 -6.6875l0 -1.890625l1.640625 0l0 1.890625l-1.640625 0zm0 11.46875l0 -9.671875l1.640625 0l0 9.671875l-1.640625 0zm10.457306 -1.1875q-0.921875 0.765625 -1.765625 1.09375q-0.828125 0.3125 -1.796875 0.3125q-1.59375 0 -2.453125 -0.78125q-0.859375 -0.78125 -0.859375 -1.984375q0 -0.71875 0.328125 -1.296875q0.328125 -0.59375 0.84375 -0.9375q0.53125 -0.359375 1.1875 -0.546875q0.46875 -0.125 1.453125 -0.25q1.984375 -0.234375 2.921875 -0.5625q0.015625 -0.34375 0.015625 -0.421875q0 -1.0 -0.46875 -1.421875q-0.625 -0.546875 -1.875 -0.546875q-1.15625 0 -1.703125 0.40625q-0.546875 0.40625 -0.8125 1.421875l-1.609375 -0.21875q0.21875 -1.015625 0.71875 -1.640625q0.5 -0.640625 1.453125 -0.984375q0.953125 -0.34375 2.1875 -0.34375q1.25 0 2.015625 0.296875q0.78125 0.28125 1.140625 0.734375q0.375 0.4375 0.515625 1.109375q0.078125 0.421875 0.078125 1.515625l0 2.1875q0 2.28125 0.109375 2.890625q0.109375 0.59375 0.40625 1.15625l-1.703125 0q-0.265625 -0.515625 -0.328125 -1.1875zm-0.140625 -3.671875q-0.890625 0.375 -2.671875 0.625q-1.015625 0.140625 -1.4375 0.328125q-0.421875 0.1875 -0.65625 0.53125q-0.21875 0.34375 -0.21875 0.78125q0 0.65625 0.5 1.09375q0.5 0.4375 1.453125 0.4375q0.9375 0 1.671875 -0.40625q0.75 -0.421875 1.09375 -1.140625q0.265625 -0.5625 0.265625 -1.640625l0 -0.609375z" fill-rule="nonzero"/></g></svg>